<mxfile host="app.diagrams.net" modified="2024-02-18T00:47:51.633Z" agent="Mozilla/5.0 (Windows NT 10.0; Win64; x64) AppleWebKit/537.36 (KHTML, like Gecko) Chrome/121.0.0.0 Safari/537.36" etag="f93jkruPu-srj4t5oC_6" version="23.1.5" type="device">
  <diagram name="Page-1" id="GHK2TWbVCZ-HvG1AFBQ-">
    <mxGraphModel dx="1235" dy="655" grid="1" gridSize="10" guides="1" tooltips="1" connect="1" arrows="1" fold="1" page="1" pageScale="1" pageWidth="300" pageHeight="600" math="0" shadow="0">
      <root>
        <mxCell id="0" />
        <mxCell id="1" parent="0" />
        <mxCell id="oC7PhE3dxN8NYIIMUTOY-4" value="" style="edgeStyle=orthogonalEdgeStyle;rounded=0;orthogonalLoop=1;jettySize=auto;html=1;" edge="1" parent="1" source="oC7PhE3dxN8NYIIMUTOY-1" target="oC7PhE3dxN8NYIIMUTOY-3">
          <mxGeometry relative="1" as="geometry" />
        </mxCell>
        <mxCell id="oC7PhE3dxN8NYIIMUTOY-1" value="" style="rounded=1;whiteSpace=wrap;html=1;" vertex="1" parent="1">
          <mxGeometry x="60" y="40" width="120" height="60" as="geometry" />
        </mxCell>
        <mxCell id="oC7PhE3dxN8NYIIMUTOY-6" value="" style="edgeStyle=orthogonalEdgeStyle;rounded=0;orthogonalLoop=1;jettySize=auto;html=1;" edge="1" parent="1" source="oC7PhE3dxN8NYIIMUTOY-3" target="oC7PhE3dxN8NYIIMUTOY-5">
          <mxGeometry relative="1" as="geometry" />
        </mxCell>
        <mxCell id="oC7PhE3dxN8NYIIMUTOY-3" value="" style="rounded=1;whiteSpace=wrap;html=1;" vertex="1" parent="1">
          <mxGeometry x="30" y="150" width="180" height="60" as="geometry" />
        </mxCell>
        <mxCell id="oC7PhE3dxN8NYIIMUTOY-8" value="" style="edgeStyle=orthogonalEdgeStyle;rounded=0;orthogonalLoop=1;jettySize=auto;html=1;" edge="1" parent="1" source="oC7PhE3dxN8NYIIMUTOY-5" target="oC7PhE3dxN8NYIIMUTOY-7">
          <mxGeometry relative="1" as="geometry" />
        </mxCell>
        <mxCell id="oC7PhE3dxN8NYIIMUTOY-5" value="" style="rounded=1;whiteSpace=wrap;html=1;" vertex="1" parent="1">
          <mxGeometry x="60" y="270" width="120" height="60" as="geometry" />
        </mxCell>
        <mxCell id="oC7PhE3dxN8NYIIMUTOY-10" value="" style="edgeStyle=orthogonalEdgeStyle;rounded=0;orthogonalLoop=1;jettySize=auto;html=1;" edge="1" parent="1" source="oC7PhE3dxN8NYIIMUTOY-7" target="oC7PhE3dxN8NYIIMUTOY-9">
          <mxGeometry relative="1" as="geometry" />
        </mxCell>
        <mxCell id="oC7PhE3dxN8NYIIMUTOY-7" value="" style="rounded=1;whiteSpace=wrap;html=1;" vertex="1" parent="1">
          <mxGeometry x="60" y="400" width="120" height="60" as="geometry" />
        </mxCell>
        <mxCell id="oC7PhE3dxN8NYIIMUTOY-9" value="" style="rounded=1;whiteSpace=wrap;html=1;" vertex="1" parent="1">
          <mxGeometry x="60" y="520" width="120" height="60" as="geometry" />
        </mxCell>
        <mxCell id="oC7PhE3dxN8NYIIMUTOY-11" value="&lt;font style=&quot;font-size: 19px;&quot;&gt;Data Entry&lt;/font&gt;" style="text;html=1;align=center;verticalAlign=middle;whiteSpace=wrap;rounded=0;" vertex="1" parent="1">
          <mxGeometry x="65" y="50" width="105" height="40" as="geometry" />
        </mxCell>
        <mxCell id="oC7PhE3dxN8NYIIMUTOY-12" value="&lt;span style=&quot;font-size: 19px;&quot;&gt;Data Cleaning and Processing&lt;/span&gt;" style="text;html=1;align=center;verticalAlign=middle;whiteSpace=wrap;rounded=0;" vertex="1" parent="1">
          <mxGeometry x="38.75" y="160" width="162.5" height="40" as="geometry" />
        </mxCell>
        <mxCell id="oC7PhE3dxN8NYIIMUTOY-13" value="&lt;div style=&quot;text-align: center;&quot;&gt;&lt;span style=&quot;background-color: initial; font-size: 19px;&quot;&gt;Feature Engineering&lt;/span&gt;&lt;/div&gt;" style="text;whiteSpace=wrap;html=1;" vertex="1" parent="1">
          <mxGeometry x="45" y="270" width="150" height="50" as="geometry" />
        </mxCell>
        <mxCell id="oC7PhE3dxN8NYIIMUTOY-14" value="&lt;div style=&quot;text-align: center;&quot;&gt;&lt;span style=&quot;background-color: initial; font-size: 19px;&quot;&gt;Leave time Prediction&lt;/span&gt;&lt;/div&gt;" style="text;whiteSpace=wrap;html=1;" vertex="1" parent="1">
          <mxGeometry x="65" y="405" width="115" height="50" as="geometry" />
        </mxCell>
        <mxCell id="oC7PhE3dxN8NYIIMUTOY-15" value="&lt;div style=&quot;text-align: center;&quot;&gt;&lt;span style=&quot;background-color: initial; font-size: 19px;&quot;&gt;Location Assignment&lt;/span&gt;&lt;/div&gt;" style="text;whiteSpace=wrap;html=1;" vertex="1" parent="1">
          <mxGeometry x="60" y="520" width="115" height="50" as="geometry" />
        </mxCell>
      </root>
    </mxGraphModel>
  </diagram>
</mxfile>
